<?xml version="1.0" encoding="utf-8"?>
<!-- Generator: Adobe Illustrator 21.0.2, SVG Export Plug-In . SVG Version: 6.00 Build 0)  -->
<svg version="1.1"
	 id="Calque_1" inkscape:version="0.91 r13725" sodipodi:docname="indicator-armadito.svg" xmlns:cc="http://creativecommons.org/ns#" xmlns:dc="http://purl.org/dc/elements/1.1/" xmlns:inkscape="http://www.inkscape.org/namespaces/inkscape" xmlns:rdf="http://www.w3.org/1999/02/22-rdf-syntax-ns#" xmlns:sodipodi="http://sodipodi.sourceforge.net/DTD/sodipodi-0.dtd" xmlns:svg="http://www.w3.org/2000/svg"
	 xmlns="http://www.w3.org/2000/svg" xmlns:xlink="http://www.w3.org/1999/xlink" x="0px" y="0px" viewBox="0 0 518 518"
	 style="enable-background:new 0 0 518 518;" xml:space="preserve">
<style type="text/css">
	.st0{display:none;}
	.st1{display:inline;}
	.st2{fill:#DCD8D0;}
	.st3{fill:none;}
	.st4{fill:#FF8A85;}
	.st5{fill:#7A7A7A;}
	.st6{fill:#EC2730;}
	.st7{display:none;fill:#FFFFFF;}
	.st8{display:none;fill:#EC2730;}
</style>
<sodipodi:namedview  bordercolor="#666666" borderopacity="1" fit-margin-bottom="0" fit-margin-left="0" fit-margin-right="0" fit-margin-top="0" gridtolerance="10" guidetolerance="10" id="namedview71" inkscape:current-layer="Calque_1" inkscape:cx="-261.89525" inkscape:cy="260.3595" inkscape:pageopacity="0" inkscape:pageshadow="2" inkscape:window-height="876" inkscape:window-maximized="1" inkscape:window-width="1600" inkscape:window-x="0" inkscape:window-y="24" inkscape:zoom="0.39435129" objecttolerance="10" pagecolor="#ffffff" showgrid="false">
	</sodipodi:namedview>
<g id="g3" transform="translate(-198.5,-39.99445)" class="st0">
	<g id="g5" class="st1">
		<g id="g7">
			<path id="path9" inkscape:connector-curvature="0" class="st2" d="M240.3,208.9c-35.5,0-64.7-27.2-75.2-58.5
				c-1-6.3-2.1-12.5-2.1-18.8c0-30.3,16.7-58.5,41.8-73.1c5.2,4.2,134.7,135.8,134.7,135.8c4.2,4.2,1,14.6-5.2,14.6L240.3,208.9
				L240.3,208.9L240.3,208.9z"/>
			<path id="path11" inkscape:connector-curvature="0" class="st2" d="M647.6,142c27.2-21.9,37.6-57.4,26.1-88.8
				c-2.1-5.2-5.2-9.4-8.4-14.6c-18.8-24-49.1-34.5-77.3-30.3c-1,6.3-25.1,186.9-25.1,186.9c-1,6.3,5.2,9.4,10.4,5.2L647.6,142
				L647.6,142z"/>
		</g>
		<g id="g13">
			<path id="path15" inkscape:connector-curvature="0" class="st2" d="M586,520.1l-13.6-7.3l81.5-249.6
				c-57.4-21.9-119.1-33.4-183.8-33.4c-63.7,0-125.3,11.5-181.7,33.4C313.4,467.9,440.8,552.5,549.4,588c9.4,3.1,18.8,3.1,28.2,2.1
				c21.9-4.2,27.2-24,28.2-29.2C607.9,547.2,603.7,528.4,586,520.1z M409.5,329c-20.9,0-37.6,20.9-37.6,0
				c0-20.9,16.7-37.6,37.6-37.6c20.9,0,37.6,16.7,37.6,37.6C448.1,349.9,430.3,329,409.5,329L409.5,329z M536.9,329
				c-20.9,0-37.6,20.9-37.6,0c0-20.9,16.7-37.6,37.6-37.6c20.9,0,37.6,16.7,37.6,37.6C575.5,349.9,557.8,329,536.9,329L536.9,329z"
				/>
		</g>
	</g>
</g>
<g id="g17" transform="translate(-198.5,-39.99445)" class="st0">
	<g id="g19" class="st1">
		<path id="path21" inkscape:connector-curvature="0" class="st3" d="M297.8,78c-0.6,0.5-1.1,1-1.6,1.6c-6.1,5.5-7.6,14.4-3.7,21.5
			c0.6,1.4,1.4,2.7,2.4,3.9c6.7,8.2,18.8,9.5,27,2.9c8.2-6.6-0.2-10.9-6.9-19.2C308.4,80.5,306,71.3,297.8,78z"/>
		<path id="path23" inkscape:connector-curvature="0" class="st3" d="M572.1,83.4c-0.5-0.4-0.9-0.6-1.3-0.9
			c-0.6-0.4-1.1-0.9-1.7-1.3c-9.1-5.5-10.2,3.9-15.7,13c-5.5,9.1-13.2,14.4-4.2,19.8c7.4,4.4,16.5,3.3,22.6-2.1
			c1.4-1,2.8-2.2,3.9-3.7C581.6,100.4,579.9,89.2,572.1,83.4z"/>
		<g id="g25">
			<path id="path27" inkscape:connector-curvature="0" class="st4" d="M641.7,389.1c-2.6,0-5,1.1-6.8,2.8l-0.3-0.3
				c-45.1,33.5-101.7,54.3-165.4,59.3c-9.9,0.7-19.8,1.2-29.7,1.2c-75.3,0-150.3-22.5-212.4-62.9l0,0.1c-1.8-1.7-4.1-2.7-6.8-2.7
				c-5.6,0-10.1,4.5-10.1,10.1c0,1.9,0.6,3.6,1.6,5.1C243.6,492.7,329.9,558,431.6,558C533,558,619,493.3,651.1,403l-0.1,0
				c0.5-1.2,0.8-2.5,0.8-3.8C651.8,393.7,647.3,389.1,641.7,389.1L641.7,389.1z"/>
			<path id="path29" inkscape:connector-curvature="0" class="st4" d="M576.6,133c13-10.2,20.4-25.8,19.5-42.3
				c-0.5-3.9-1.2-6.8-2.6-10.7c-7.1-18.8-24.3-38.6-42.2-34.5c-5.2,1.2-16.6,24.7-27.5,49.8c-10.9-21.6-46.8-37.5-89.6-37.5
				c-40.6,0-75.1,14.4-87.7,34.4c-11.1-25.8-22.9-50.4-28.2-51.6c-17.8-4.1-35.1,15.7-42.2,34.5c-1.4,3.8-2,6.8-2.6,10.7
				c-0.9,16.6,6.5,32.2,19.6,42.3c-57.4,42.5-94.5,110.6-94.5,187.4c0,9.1,0.7,18,1.6,26.7c60.8,51.3,141.1,66.1,222.5,67.1
				c8.2-1.3,12.2-1.7,14.7-1.9c3.8-0.4,4-0.4,17-4.5c5.8-2,59-21.8,79-85.3c3.4-11,8.6-16.5,15.3-16.5c4.7,0,10.4,3.2,12.2,12.3
				c3,16.1,2.8,47.4-0.5,72.8c-0.4,3-0.9,5.8-1.3,8.7c43.5-11.6,80-30.4,104.7-58.3c0.6-6.9,1-13.9,1-21
				C664.8,241.6,630.3,175.7,576.6,133L576.6,133z M321.9,107.9c-8.2,6.6-20.3,5.4-27-2.9c-1-1.2-1.7-2.5-2.4-3.9
				c-3.9-7.1-2.4-16,3.7-21.5c0.5-0.5,1-1.1,1.6-1.6c8.2-6.7,10.6,2.5,17.2,10.7C321.7,97,330.1,101.2,321.9,107.9L321.9,107.9z
				 M500.7,256c-9.2,14.8-18.7,30-24.2,46.8c-4.2,12.8-13.7,42-39.7,42c-19.1,0-32-14.2-38.5-42.1c-4.8-19.2-15.5-35.3-26-50.8
				c-13.3-19.8-25.9-38.5-25.9-60.8v-11.9c0-11.9,9.1-21.6,20.2-21.6c8.5,0,15.9,5.5,18.8,13.8c0.1,0.3,0.2,0.5,0.3,0.8
				c1.7,4.8,2.2,10.3,2.7,15.6c0.2,2.5,0.5,5,0.8,7.4c-1.8,0-3.5,0.1-5.3,0.6c-10.3,2.7-16.3,13.2-13.6,23.5
				c2.7,10.2,10,4.3,20.3,1.5c2.6-0.7,5.2-1.1,7.5-1.5c5.2,13.9,9.6,28.7,13.6,42.2c5.2,17.6,10.5,35.6,16.2,46
				c2.7-0.6,5.6-0.9,8.6-0.9c3.7,0,7.2,0.5,10.3,1.3c4.3-8.9,8.2-23.4,12-37.6c4.4-16.4,9.2-34.4,16.1-51c2.4,0.4,5,0.8,7.7,1.6
				c10.3,2.7,17.6,8.7,20.3-1.5c2.7-10.2-3.4-20.7-13.7-23.5c-1.7-0.4-3.3-0.6-5-0.6c0.2-2.1,0.4-4.2,0.5-6.4
				c0.3-5.3,0.6-10.7,2.3-16.1c0.2-0.7,0.5-1.3,0.7-1.8c3.1-8,10.3-13.2,18.6-13.2c11.1,0,20.2,9.7,20.2,21.5c0,0.2,0,0.4,0,0.6
				l0,11.3C526.6,214.5,514,234.7,500.7,256L500.7,256z M571.8,111.9c-6.1,5.4-15.2,6.6-22.6,2.1c-9.1-5.4-1.3-10.8,4.2-19.8
				c5.5-9.1,6.6-18.5,15.7-13c0.6,0.4,1.2,0.9,1.7,1.3c0.4,0.2,0.9,0.5,1.3,0.9c7.8,5.9,9.5,17,3.6,24.8
				C574.6,109.7,573.2,110.9,571.8,111.9z"/>
		</g>
	</g>
</g>
<g id="g31" transform="translate(-172.64022,-39.99445)">
	<g id="g33">
		<g id="g39">
			<path id="path41" inkscape:connector-curvature="0" class="st5" d="M641.7,389.1c-2.6,0-5,1.1-6.8,2.8l-0.3-0.3
				c-45.1,33.5-101.7,54.3-165.4,59.3c-9.9,0.7-19.8,1.2-29.7,1.2c-75.3,0-150.3-22.5-212.4-62.9l0,0.1c-1.8-1.7-4.1-2.7-6.8-2.7
				c-5.6,0-10.1,4.5-10.1,10.1c0,1.9,0.6,3.6,1.6,5.1C243.6,492.7,329.9,558,431.6,558C533,558,619,493.3,651.1,403l-0.1,0
				c0.5-1.2,0.8-2.5,0.8-3.8C651.8,393.7,647.3,389.1,641.7,389.1L641.7,389.1z"/>
			<path id="path43" inkscape:connector-curvature="0" class="st5" d="M576.6,133c13-10.2,20.4-25.8,19.5-42.3
				c-0.5-3.9-1.2-6.8-2.6-10.7c-7.1-18.8-24.3-38.6-42.2-34.5c-5.2,1.2-16.6,24.7-27.5,49.8c-10.9-21.6-46.8-37.5-89.6-37.5
				c-40.6,0-75.1,14.4-87.7,34.4c-11.1-25.8-22.9-50.4-28.2-51.6c-17.8-4.1-35.1,15.7-42.2,34.5c-1.4,3.8-2,6.8-2.6,10.7
				c-0.9,16.6,6.5,32.2,19.6,42.3c-57.4,42.5-94.5,110.6-94.5,187.4c0,9.1,0.7,18,1.6,26.7c60.8,51.3,141.1,66.1,222.5,67.1
				c8.2-1.3,12.2-1.7,14.7-1.9c3.8-0.4,4-0.4,17-4.5c5.8-2,59-21.8,79-85.3c3.4-11,8.6-16.5,15.3-16.5c4.7,0,10.4,3.2,12.2,12.3
				c3,16.1,2.8,47.4-0.5,72.8c-0.4,3-0.9,5.8-1.3,8.7c43.5-11.6,80-30.4,104.7-58.3c0.6-6.9,1-13.9,1-21
				C664.8,241.6,630.3,175.7,576.6,133L576.6,133z M321.9,107.9c-8.2,6.6-20.3,5.4-27-2.9c-1-1.2-1.7-2.5-2.4-3.9
				c-3.9-7.1-2.4-16,3.7-21.5c0.5-0.5,1-1.1,1.6-1.6c8.2-6.7,10.6,2.5,17.2,10.7C321.7,97,330.1,101.2,321.9,107.9L321.9,107.9z
				 M500.7,256c-9.2,14.8-18.7,30-24.2,46.8c-4.2,12.8-13.7,42-39.7,42c-19.1,0-32-14.2-38.5-42.1c-4.8-19.2-15.5-35.3-26-50.8
				c-13.3-19.8-25.9-38.5-25.9-60.8v-11.9c0-11.9,9.1-21.6,20.2-21.6c8.5,0,15.9,5.5,18.8,13.8c0.1,0.3,0.2,0.5,0.3,0.8
				c1.7,4.8,2.2,10.3,2.7,15.6c0.2,2.5,0.5,5,0.8,7.4c-1.8,0-3.5,0.1-5.3,0.6c-10.3,2.7-16.3,13.2-13.6,23.5
				c2.7,10.2,10,4.3,20.3,1.5c2.6-0.7,5.2-1.1,7.5-1.5c5.2,13.9,9.6,28.7,13.6,42.2c5.2,17.6,10.5,35.6,16.2,46
				c2.7-0.6,5.6-0.9,8.6-0.9c3.7,0,7.2,0.5,10.3,1.3c4.3-8.9,8.2-23.4,12-37.6c4.4-16.4,9.2-34.4,16.1-51c2.4,0.4,5,0.8,7.7,1.6
				c10.3,2.7,17.6,8.7,20.3-1.5c2.7-10.2-3.4-20.7-13.7-23.5c-1.7-0.4-3.3-0.6-5-0.6c0.2-2.1,0.4-4.2,0.5-6.4
				c0.3-5.3,0.6-10.7,2.3-16.1c0.2-0.7,0.5-1.3,0.7-1.8c3.1-8,10.3-13.2,18.6-13.2c11.1,0,20.2,9.7,20.2,21.5c0,0.2,0,0.4,0,0.6
				l0,11.3C526.6,214.5,514,234.7,500.7,256L500.7,256z M571.8,111.9c-6.1,5.4-15.2,6.6-22.6,2.1c-9.1-5.4-1.3-10.8,4.2-19.8
				c5.5-9.1,6.6-18.5,15.7-13c0.6,0.4,1.2,0.9,1.7,1.3c0.4,0.2,0.9,0.5,1.3,0.9c7.8,5.9,9.5,17,3.6,24.8
				C574.6,109.7,573.2,110.9,571.8,111.9z"/>
		</g>
	</g>
</g>
<g id="g45" transform="translate(-198.5,-39.99445)" class="st0">
	<g id="g47" class="st1">
		<g id="g49">
			<path id="path51" inkscape:connector-curvature="0" class="st6" d="M576.6,133c13-10.2,20.4-25.8,19.5-42.3
				c-0.5-3.9-1.2-6.8-2.6-10.7c-7.1-18.8-24.3-38.6-42.2-34.5c-5.2,1.2-16.6,24.7-27.5,49.8c-10.9-21.6-46.8-37.5-89.6-37.5
				c-40.6,0-75.1,14.4-87.7,34.4c-11.1-25.8-22.9-50.4-28.2-51.6c-17.8-4.1-35.1,15.7-42.2,34.5c-1.4,3.8-2,6.8-2.6,10.7
				c-0.9,16.6,6.5,32.2,19.6,42.3c-57.4,42.5-94.5,110.6-94.5,187.4c0,9.1,0.7,18,1.6,26.7c60.8,51.3,141.1,66.1,222.5,67.1
				c8.2-1.3,12.2-1.7,14.7-1.9c3.8-0.4,4-0.4,17-4.5c5.8-2,59-21.8,79-85.3c3.4-11,8.6-16.5,15.3-16.5c4.7,0,10.4,3.2,12.2,12.3
				c3,16.1,2.8,47.4-0.5,72.8c-0.4,3-0.9,5.8-1.3,8.7c43.5-11.6,80-30.4,104.7-58.3c0.6-6.9,1-13.9,1-21
				C664.8,241.6,630.3,175.7,576.6,133L576.6,133z M321.9,107.9c-8.2,6.6-20.3,5.4-27-2.9c-1-1.2-1.7-2.5-2.4-3.9
				c-3.9-7.1-2.4-16,3.7-21.5c0.5-0.5,1-1.1,1.6-1.6c8.2-6.7,10.6,2.5,17.2,10.7C321.7,97,330.1,101.2,321.9,107.9L321.9,107.9z
				 M500.7,256c-9.2,14.8-18.7,30-24.2,46.8c-4.2,12.8-13.7,42-39.7,42c-19.1,0-32-14.2-38.5-42.1c-4.8-19.2-15.5-35.3-26-50.8
				c-13.3-19.8-25.9-38.5-25.9-60.8v-11.9c0-11.9,9.1-21.6,20.2-21.6c8.5,0,15.9,5.5,18.8,13.8c0.1,0.3,0.2,0.5,0.3,0.8
				c1.7,4.8,2.2,10.3,2.7,15.6c0.2,2.5,0.5,5,0.8,7.4c-1.8,0-3.5,0.1-5.3,0.6c-10.3,2.7-16.3,13.2-13.6,23.5
				c2.7,10.2,10,4.3,20.3,1.5c2.6-0.7,5.2-1.1,7.5-1.5c5.2,13.9,9.6,28.7,13.6,42.2c5.2,17.6,10.5,35.6,16.2,46
				c2.7-0.6,5.6-0.9,8.6-0.9c3.7,0,7.2,0.5,10.3,1.3c4.3-8.9,8.2-23.4,12-37.6c4.4-16.4,9.2-34.4,16.1-51c2.4,0.4,5,0.8,7.7,1.6
				c10.3,2.7,17.6,8.7,20.3-1.5c2.7-10.2-3.4-20.7-13.7-23.5c-1.7-0.4-3.3-0.6-5-0.6c0.2-2.1,0.4-4.2,0.5-6.4
				c0.3-5.3,0.6-10.7,2.3-16.1c0.2-0.7,0.5-1.3,0.7-1.8c3.1-8,10.3-13.2,18.6-13.2c11.1,0,20.2,9.7,20.2,21.5c0,0.2,0,0.4,0,0.6
				l0,11.3C526.6,214.5,514,234.7,500.7,256L500.7,256z M571.8,111.9c-6.1,5.4-15.2,6.6-22.6,2.1c-9.1-5.4-1.3-10.8,4.2-19.8
				c5.5-9.1,6.6-18.5,15.7-13c0.6,0.4,1.2,0.9,1.7,1.3c0.4,0.2,0.9,0.5,1.3,0.9c7.8,5.9,9.5,17,3.6,24.8
				C574.6,109.7,573.2,110.9,571.8,111.9z"/>
		</g>
	</g>
</g>
<ellipse id="ellipse53" class="st7" cx="232.4" cy="280.6" rx="233.5" ry="237.5"/>
<circle id="circle55" class="st7" cx="361.9" cy="60.1" r="27"/>
<circle id="circle57" class="st7" cx="109.9" cy="54.1" r="27"/>
<g id="g59" transform="translate(-198.5,-39.99445)" class="st0">
	<g id="g61" class="st1">
		<g id="g63">
			<path id="path65" inkscape:connector-curvature="0" class="st2" d="M641.7,389.1c-2.6,0-5,1.1-6.8,2.8l-0.3-0.3
				c-45.1,33.5-101.7,54.3-165.4,59.3c-9.9,0.7-19.8,1.2-29.7,1.2c-75.3,0-150.3-22.5-212.4-62.9l0,0.1c-1.8-1.7-4.1-2.7-6.8-2.7
				c-5.6,0-10.1,4.5-10.1,10.1c0,1.9,0.6,3.6,1.6,5.1C243.6,492.7,329.9,558,431.6,558C533,558,619,493.3,651.1,403l-0.1,0
				c0.5-1.2,0.8-2.5,0.8-3.8C651.8,393.7,647.3,389.1,641.7,389.1L641.7,389.1z"/>
			<path id="path67" inkscape:connector-curvature="0" class="st2" d="M576.6,133c13-10.2,20.4-25.8,19.5-42.3
				c-0.5-3.9-1.2-6.8-2.6-10.7c-7.1-18.8-24.3-38.6-42.2-34.5c-5.2,1.2-16.6,24.7-27.5,49.8c-10.9-21.6-46.8-37.5-89.6-37.5
				c-40.6,0-75.1,14.4-87.7,34.4c-11.1-25.8-22.9-50.4-28.2-51.6c-17.8-4.1-35.1,15.7-42.2,34.5c-1.4,3.8-2,6.8-2.6,10.7
				c-0.9,16.6,6.5,32.2,19.6,42.3c-57.4,42.5-94.5,110.6-94.5,187.4c0,9.1,0.7,18,1.6,26.7c60.8,51.3,141.1,66.1,222.5,67.1
				c8.2-1.3,12.2-1.7,14.7-1.9c3.8-0.4,4-0.4,17-4.5c5.8-2,59-21.8,79-85.3c3.4-11,8.6-16.5,15.3-16.5c4.7,0,10.4,3.2,12.2,12.3
				c3,16.1,2.8,47.4-0.5,72.8c-0.4,3-0.9,5.8-1.3,8.7c43.5-11.6,80-30.4,104.7-58.3c0.6-6.9,1-13.9,1-21
				C664.8,241.6,630.3,175.7,576.6,133L576.6,133z M321.9,107.9c-8.2,6.6-20.3,5.4-27-2.9c-1-1.2-1.7-2.5-2.4-3.9
				c-3.9-7.1-2.4-16,3.7-21.5c0.5-0.5,1-1.1,1.6-1.6c8.2-6.7,10.6,2.5,17.2,10.7C321.7,97,330.1,101.2,321.9,107.9L321.9,107.9z
				 M500.7,256c-9.2,14.8-18.7,30-24.2,46.8c-4.2,12.8-13.7,42-39.7,42c-19.1,0-32-14.2-38.5-42.1c-4.8-19.2-15.5-35.3-26-50.8
				c-13.3-19.8-25.9-38.5-25.9-60.8v-11.9c0-11.9,9.1-21.6,20.2-21.6c8.5,0,15.9,5.5,18.8,13.8c0.1,0.3,0.2,0.5,0.3,0.8
				c1.7,4.8,2.2,10.3,2.7,15.6c0.2,2.5,0.5,5,0.8,7.4c-1.8,0-3.5,0.1-5.3,0.6c-10.3,2.7-16.3,13.2-13.6,23.5
				c2.7,10.2,10,4.3,20.3,1.5c2.6-0.7,5.2-1.1,7.5-1.5c5.2,13.9,9.6,28.7,13.6,42.2c5.2,17.6,10.5,35.6,16.2,46
				c2.7-0.6,5.6-0.9,8.6-0.9c3.7,0,7.2,0.5,10.3,1.3c4.3-8.9,8.2-23.4,12-37.6c4.4-16.4,9.2-34.4,16.1-51c2.4,0.4,5,0.8,7.7,1.6
				c10.3,2.7,17.6,8.7,20.3-1.5c2.7-10.2-3.4-20.7-13.7-23.5c-1.7-0.4-3.3-0.6-5-0.6c0.2-2.1,0.4-4.2,0.5-6.4
				c0.3-5.3,0.6-10.7,2.3-16.1c0.2-0.7,0.5-1.3,0.7-1.8c3.1-8,10.3-13.2,18.6-13.2c11.1,0,20.2,9.7,20.2,21.5c0,0.2,0,0.4,0,0.6
				l0,11.3C526.6,214.5,514,234.7,500.7,256L500.7,256z M571.8,111.9c-6.1,5.4-15.2,6.6-22.6,2.1c-9.1-5.4-1.3-10.8,4.2-19.8
				c5.5-9.1,6.6-18.5,15.7-13c0.6,0.4,1.2,0.9,1.7,1.3c0.4,0.2,0.9,0.5,1.3,0.9c7.8,5.9,9.5,17,3.6,24.8
				C574.6,109.7,573.2,110.9,571.8,111.9z"/>
		</g>
	</g>
</g>
<path id="path69" inkscape:connector-curvature="0" class="st8" d="M94.5,88.1c11.4,9.5,51.4,30,52.9,57.5s47,63.5,47,63.5
	l49.5-22.5L208.4,33.1l-72.5,44L94.5,88.1z"/>
</svg>
