<?xml version="1.0" encoding="utf-8"?>
<!-- Generator: Adobe Illustrator 16.0.0, SVG Export Plug-In . SVG Version: 6.00 Build 0)  -->
<!DOCTYPE svg PUBLIC "-//W3C//DTD SVG 1.1//EN" "http://www.w3.org/Graphics/SVG/1.1/DTD/svg11.dtd">
<svg version="1.1" id="Calque_1" xmlns="http://www.w3.org/2000/svg" xmlns:xlink="http://www.w3.org/1999/xlink" x="0px" y="0px"
	 width="841.889px" height="595.281px" viewBox="0 0 841.889 595.281" enable-background="new 0 0 841.889 595.281"
	 xml:space="preserve">
<g display="none">
	<g display="inline">
		<g>
			<path fill="#DCD8D0" d="M240.272,208.87c-35.508,0-64.749-27.152-75.193-58.483c-1.044-6.266-2.088-12.532-2.088-18.798
				c0-30.286,16.709-58.484,41.773-73.104c5.222,4.177,134.722,135.766,134.722,135.766c4.177,4.177,1.044,14.62-5.222,14.62
				H240.272L240.272,208.87z"/>
			<path fill="#DCD8D0" d="M647.569,142.032c27.153-21.932,37.597-57.439,26.109-88.771c-2.089-5.222-5.222-9.398-8.355-14.62
				c-18.798-24.021-49.084-34.464-77.281-30.286c-1.045,6.266-25.064,186.938-25.064,186.938c-1.045,6.267,5.222,9.399,10.443,5.222
				L647.569,142.032L647.569,142.032z"/>
		</g>
		<g>
			<path fill="#DCD8D0" d="M585.952,520.088l-13.577-7.311l81.46-249.601c-57.439-21.932-119.057-33.419-183.806-33.419
				c-63.706,0-125.322,11.487-181.718,33.419C313.376,467.87,440.787,552.463,549.4,587.97c9.399,3.133,18.799,3.133,28.197,2.088
				c21.932-4.177,27.153-24.02,28.198-29.241C607.883,547.24,603.706,528.442,585.952,520.088z M409.457,328.97
				c-20.888,0-37.597,20.888-37.597,0c0-20.887,16.709-37.597,37.597-37.597c20.887,0,37.596,16.71,37.596,37.597
				C448.098,349.858,430.344,328.97,409.457,328.97z M536.867,328.97c-20.887,0-37.597,20.888-37.597,0
				c0-20.887,16.71-37.597,37.597-37.597s37.597,16.71,37.597,37.597C575.508,349.858,557.754,328.97,536.867,328.97z"/>
		</g>
	</g>
</g>
<g display="none">
	<g display="inline">
		<path fill="none" d="M297.808,78.025c-0.598,0.481-1.082,1.046-1.609,1.583c-6.064,5.492-7.555,14.363-3.662,21.502
			c0.64,1.353,1.394,2.665,2.375,3.884c6.666,8.246,18.757,9.517,26.963,2.883c8.249-6.639-0.19-10.865-6.863-19.153
			C308.378,80.478,306.026,71.347,297.808,78.025z"/>
		<path fill="none" d="M572.115,83.364c-0.478-0.355-0.922-0.646-1.332-0.882c-0.569-0.44-1.103-0.922-1.731-1.306
			c-9.09-5.474-10.158,3.923-15.665,13.019c-5.457,9.06-13.242,14.391-4.169,19.841c7.363,4.436,16.46,3.289,22.574-2.136
			c1.437-1.038,2.79-2.232,3.908-3.728C581.571,100.374,579.938,89.244,572.115,83.364z"/>
		<g>
			<path fill="#FF8A85" d="M641.749,389.136c-2.637,0-5.007,1.076-6.797,2.758l-0.348-0.264
				c-45.053,33.485-101.66,54.291-165.438,59.317c-9.856,0.744-19.755,1.189-29.669,1.189c-75.324,0-150.324-22.517-212.413-62.919
				l-0.037,0.056c-1.787-1.664-4.123-2.707-6.766-2.707c-5.553,0-10.08,4.495-10.08,10.072c0,1.934,0.646,3.613,1.609,5.127
				c31.816,90.888,118.101,156.235,219.836,156.235c101.341,0,187.342-64.742,219.473-154.974l-0.055-0.033
				c0.475-1.187,0.75-2.455,0.75-3.772C651.816,393.684,647.303,389.136,641.749,389.136z"/>
			<path fill="#FF8A85" d="M576.586,132.986c12.997-10.153,20.387-25.753,19.465-42.333c-0.521-3.856-1.16-6.839-2.607-10.688
				c-7.116-18.809-24.319-38.589-42.155-34.522c-5.231,1.183-16.649,24.686-27.479,49.83
				c-10.871-21.599-46.804-37.509-89.563-37.509c-40.589,0-75.103,14.363-87.734,34.383c-11.082-25.839-22.894-50.387-28.247-51.607
				c-17.8-4.104-35.059,15.687-42.168,34.509c-1.449,3.841-2.041,6.833-2.612,10.722c-0.903,16.605,6.505,32.196,19.553,42.347
				C235.678,170.589,198.5,238.719,198.5,315.552c0,9.076,0.657,17.963,1.627,26.721c60.751,51.338,141.061,66.065,222.527,67.051
				c8.233-1.305,12.159-1.675,14.694-1.881c3.8-0.404,3.981-0.404,17.042-4.496c5.771-2.044,59.013-21.848,78.988-85.29
				c3.435-10.968,8.568-16.528,15.279-16.528c4.729,0,10.39,3.208,12.18,12.281c3.015,16.085,2.788,47.357-0.486,72.752
				c-0.43,3.021-0.866,5.767-1.316,8.712c43.55-11.613,79.951-30.443,104.712-58.3c0.615-6.921,1.039-13.942,1.039-21.021
				C664.786,241.599,630.302,175.703,576.586,132.986z M321.876,107.876c-8.206,6.634-20.298,5.363-26.963-2.883
				c-0.982-1.219-1.735-2.531-2.375-3.884c-3.893-7.14-2.402-16.01,3.662-21.502c0.527-0.536,1.011-1.102,1.609-1.583
				c8.218-6.678,10.57,2.453,17.205,10.699C321.686,97.011,330.125,101.237,321.876,107.876z M500.659,256.005
				c-9.182,14.763-18.706,29.979-24.205,46.79c-4.179,12.778-13.738,41.962-39.659,41.962c-19.071,0-32.039-14.16-38.542-42.084
				c-4.759-19.238-15.518-35.27-25.958-50.76c-13.297-19.781-25.856-38.467-25.856-60.831v-11.908
				c0-11.908,9.062-21.573,20.192-21.573c8.48,0,15.854,5.486,18.81,13.821c0.107,0.265,0.197,0.511,0.299,0.76
				c1.724,4.796,2.216,10.284,2.71,15.59c0.223,2.498,0.461,5.024,0.816,7.401c-1.769-0.039-3.55,0.076-5.339,0.55
				c-10.267,2.741-16.33,13.247-13.63,23.459c2.749,10.243,10.016,4.251,20.289,1.526c2.617-0.697,5.164-1.114,7.475-1.516
				c5.241,13.927,9.639,28.667,13.625,42.16c5.181,17.61,10.508,35.603,16.244,45.994c2.658-0.565,5.564-0.882,8.631-0.882
				c3.727,0,7.18,0.5,10.267,1.311c4.284-8.859,8.162-23.415,11.961-37.646c4.388-16.389,9.215-34.434,16.074-50.98
				c2.37,0.417,4.988,0.839,7.7,1.56c10.262,2.725,17.569,8.717,20.32-1.526c2.675-10.212-3.411-20.718-13.654-23.459
				c-1.676-0.442-3.346-0.572-4.998-0.566c0.224-2.059,0.386-4.192,0.51-6.411c0.323-5.289,0.641-10.742,2.322-16.1
				c0.198-0.661,0.455-1.259,0.746-1.829c3.107-7.979,10.318-13.216,18.592-13.216c11.138,0,20.196,9.666,20.196,21.519
				c0,0.194,0,0.394-0.012,0.585l0.029,11.338C526.615,214.529,514.007,234.707,500.659,256.005z M571.792,111.901
				c-6.114,5.424-15.211,6.571-22.574,2.136c-9.073-5.45-1.288-10.782,4.169-19.841c5.507-9.096,6.575-18.492,15.665-13.019
				c0.629,0.384,1.162,0.866,1.731,1.306c0.41,0.236,0.854,0.527,1.332,0.882c7.822,5.88,9.455,17.01,3.585,24.809
				C574.582,109.669,573.229,110.863,571.792,111.901z"/>
		</g>
	</g>
</g>
<g>
	<g>
		<path fill="#EC2730" d="M297.808,78.025c-0.598,0.481-1.082,1.046-1.609,1.583c-6.064,5.492-7.555,14.363-3.662,21.502
			c0.64,1.353,1.394,2.665,2.375,3.884c6.666,8.246,18.757,9.517,26.963,2.883c8.249-6.639-0.19-10.865-6.863-19.153
			C308.378,80.478,306.026,71.347,297.808,78.025z"/>
		<path fill="#EC2730" d="M572.115,83.364c-0.478-0.355-0.922-0.646-1.332-0.882c-0.569-0.44-1.103-0.922-1.731-1.306
			c-9.09-5.474-10.158,3.923-15.665,13.019c-5.457,9.06-13.242,14.391-4.169,19.841c7.363,4.436,16.46,3.289,22.574-2.136
			c1.437-1.038,2.79-2.232,3.908-3.728C581.571,100.374,579.938,89.244,572.115,83.364z"/>
		<g>
			<path fill="#EC2730" d="M641.749,389.136c-2.637,0-5.007,1.076-6.797,2.758l-0.348-0.264
				c-45.053,33.485-101.66,54.291-165.438,59.317c-9.856,0.744-19.755,1.189-29.669,1.189c-75.324,0-150.324-22.517-212.413-62.919
				l-0.037,0.056c-1.787-1.664-4.123-2.707-6.766-2.707c-5.553,0-10.08,4.495-10.08,10.072c0,1.934,0.646,3.613,1.609,5.127
				c31.816,90.888,118.101,156.235,219.836,156.235c101.341,0,187.342-64.742,219.473-154.974l-0.055-0.033
				c0.475-1.187,0.75-2.455,0.75-3.772C651.816,393.684,647.303,389.136,641.749,389.136z"/>
			<path fill="#EC2730" d="M576.586,132.986c12.997-10.153,20.387-25.753,19.465-42.333c-0.521-3.856-1.16-6.839-2.607-10.688
				c-7.116-18.809-24.319-38.589-42.155-34.522c-5.231,1.183-16.649,24.686-27.479,49.83
				c-10.871-21.599-46.804-37.509-89.563-37.509c-40.589,0-75.103,14.363-87.734,34.383c-11.082-25.839-22.894-50.387-28.247-51.607
				c-17.8-4.104-35.059,15.687-42.168,34.509c-1.449,3.841-2.041,6.833-2.612,10.722c-0.903,16.605,6.505,32.196,19.553,42.347
				C235.678,170.589,198.5,238.719,198.5,315.552c0,9.076,0.657,17.963,1.627,26.721c60.751,51.338,141.061,66.065,222.527,67.051
				c8.233-1.305,12.159-1.675,14.694-1.881c3.8-0.404,3.981-0.404,17.042-4.496c5.771-2.044,59.013-21.848,78.988-85.29
				c3.435-10.968,8.568-16.528,15.279-16.528c4.729,0,10.39,3.208,12.18,12.281c3.015,16.085,2.788,47.357-0.486,72.752
				c-0.43,3.021-0.866,5.767-1.316,8.712c43.55-11.613,79.951-30.443,104.712-58.3c0.615-6.921,1.039-13.942,1.039-21.021
				C664.786,241.599,630.302,175.703,576.586,132.986z M321.876,107.876c-8.206,6.634-20.298,5.363-26.963-2.883
				c-0.982-1.219-1.735-2.531-2.375-3.884c-3.893-7.14-2.402-16.01,3.662-21.502c0.527-0.536,1.011-1.102,1.609-1.583
				c8.218-6.678,10.57,2.453,17.205,10.699C321.686,97.011,330.125,101.237,321.876,107.876z M500.659,256.005
				c-9.182,14.763-18.706,29.979-24.205,46.79c-4.179,12.778-13.738,41.962-39.659,41.962c-19.071,0-32.039-14.16-38.542-42.084
				c-4.759-19.238-15.518-35.27-25.958-50.76c-13.297-19.781-25.856-38.467-25.856-60.831v-11.908
				c0-11.908,9.062-21.573,20.192-21.573c8.48,0,15.854,5.486,18.81,13.821c0.107,0.265,0.197,0.511,0.299,0.76
				c1.724,4.796,2.216,10.284,2.71,15.59c0.223,2.498,0.461,5.024,0.816,7.401c-1.769-0.039-3.55,0.076-5.339,0.55
				c-10.267,2.741-16.33,13.247-13.63,23.459c2.749,10.243,10.016,4.251,20.289,1.526c2.617-0.697,5.164-1.114,7.475-1.516
				c5.241,13.927,9.639,28.667,13.625,42.16c5.181,17.61,10.508,35.603,16.244,45.994c2.658-0.565,5.564-0.882,8.631-0.882
				c3.727,0,7.18,0.5,10.267,1.311c4.284-8.859,8.162-23.415,11.961-37.646c4.388-16.389,9.215-34.434,16.074-50.98
				c2.37,0.417,4.988,0.839,7.7,1.56c10.262,2.725,17.569,8.717,20.32-1.526c2.675-10.212-3.411-20.718-13.654-23.459
				c-1.676-0.442-3.346-0.572-4.998-0.566c0.224-2.059,0.386-4.192,0.51-6.411c0.323-5.289,0.641-10.742,2.322-16.1
				c0.198-0.661,0.455-1.259,0.746-1.829c3.107-7.979,10.318-13.216,18.592-13.216c11.138,0,20.196,9.666,20.196,21.519
				c0,0.194,0,0.394-0.012,0.585l0.029,11.338C526.615,214.529,514.007,234.707,500.659,256.005z M571.792,111.901
				c-6.114,5.424-15.211,6.571-22.574,2.136c-9.073-5.45-1.288-10.782,4.169-19.841c5.507-9.096,6.575-18.492,15.665-13.019
				c0.629,0.384,1.162,0.866,1.731,1.306c0.41,0.236,0.854,0.527,1.332,0.882c7.822,5.88,9.455,17.01,3.585,24.809
				C574.582,109.669,573.229,110.863,571.792,111.901z"/>
		</g>
	</g>
</g>
<g display="none">
	<g display="inline">
		<g>
			<path fill="#EC2730" d="M576.586,132.986c12.997-10.153,20.387-25.753,19.465-42.333c-0.521-3.856-1.16-6.839-2.607-10.688
				c-7.116-18.809-24.319-38.589-42.155-34.522c-5.231,1.183-16.649,24.686-27.479,49.83
				c-10.871-21.599-46.804-37.509-89.563-37.509c-40.589,0-75.103,14.363-87.734,34.383c-11.082-25.839-22.894-50.387-28.247-51.607
				c-17.8-4.104-35.059,15.687-42.168,34.509c-1.449,3.841-2.041,6.833-2.612,10.722c-0.903,16.605,6.505,32.196,19.553,42.347
				C235.678,170.589,198.5,238.719,198.5,315.552c0,9.076,0.657,17.963,1.627,26.721c60.751,51.338,141.061,66.065,222.527,67.051
				c8.233-1.305,12.159-1.675,14.694-1.881c3.8-0.404,3.981-0.404,17.042-4.496c5.771-2.044,59.013-21.848,78.988-85.29
				c3.435-10.968,8.568-16.528,15.279-16.528c4.729,0,10.39,3.208,12.18,12.281c3.015,16.085,2.788,47.357-0.486,72.752
				c-0.43,3.021-0.866,5.767-1.316,8.712c43.55-11.613,79.951-30.443,104.712-58.3c0.615-6.921,1.039-13.942,1.039-21.021
				C664.786,241.599,630.302,175.703,576.586,132.986z M321.876,107.876c-8.206,6.634-20.298,5.363-26.963-2.883
				c-0.982-1.219-1.735-2.531-2.375-3.884c-3.893-7.14-2.402-16.01,3.662-21.502c0.527-0.536,1.011-1.102,1.609-1.583
				c8.218-6.678,10.57,2.453,17.205,10.699C321.686,97.011,330.125,101.237,321.876,107.876z M500.659,256.005
				c-9.182,14.763-18.706,29.979-24.205,46.79c-4.179,12.778-13.738,41.962-39.659,41.962c-19.071,0-32.039-14.16-38.542-42.084
				c-4.759-19.238-15.518-35.27-25.958-50.76c-13.297-19.781-25.856-38.467-25.856-60.831v-11.908
				c0-11.908,9.062-21.573,20.192-21.573c8.48,0,15.854,5.486,18.81,13.821c0.107,0.265,0.197,0.511,0.299,0.76
				c1.724,4.796,2.216,10.284,2.71,15.59c0.223,2.498,0.461,5.024,0.816,7.401c-1.769-0.039-3.55,0.076-5.339,0.55
				c-10.267,2.741-16.33,13.247-13.63,23.459c2.749,10.243,10.016,4.251,20.289,1.526c2.617-0.697,5.164-1.114,7.475-1.516
				c5.241,13.927,9.639,28.667,13.625,42.16c5.181,17.61,10.508,35.603,16.244,45.994c2.658-0.565,5.564-0.882,8.631-0.882
				c3.727,0,7.18,0.5,10.267,1.311c4.284-8.859,8.162-23.415,11.961-37.646c4.388-16.389,9.215-34.434,16.074-50.98
				c2.37,0.417,4.988,0.839,7.7,1.56c10.262,2.725,17.569,8.717,20.32-1.526c2.675-10.212-3.411-20.718-13.654-23.459
				c-1.676-0.442-3.346-0.572-4.998-0.566c0.224-2.059,0.386-4.192,0.51-6.411c0.323-5.289,0.641-10.742,2.322-16.1
				c0.198-0.661,0.455-1.259,0.746-1.829c3.107-7.979,10.318-13.216,18.592-13.216c11.138,0,20.196,9.666,20.196,21.519
				c0,0.194,0,0.394-0.012,0.585l0.029,11.338C526.615,214.529,514.007,234.707,500.659,256.005z M571.792,111.901
				c-6.114,5.424-15.211,6.571-22.574,2.136c-9.073-5.45-1.288-10.782,4.169-19.841c5.507-9.096,6.575-18.492,15.665-13.019
				c0.629,0.384,1.162,0.866,1.731,1.306c0.41,0.236,0.854,0.527,1.332,0.882c7.822,5.88,9.455,17.01,3.585,24.809
				C574.582,109.669,573.229,110.863,571.792,111.901z"/>
		</g>
	</g>
</g>
<ellipse display="none" fill="#FFFFFF" cx="430.945" cy="320.64" rx="233.5" ry="237.5"/>
<circle display="none" fill="#FFFFFF" cx="560.445" cy="100.14" r="27"/>
<circle display="none" fill="#FFFFFF" cx="308.445" cy="94.14" r="27"/>
<g display="none">
	<g display="inline">
		<g>
			<path fill="#DCD8D0" d="M641.749,389.136c-2.637,0-5.007,1.076-6.797,2.758l-0.348-0.264
				c-45.053,33.485-101.66,54.291-165.438,59.317c-9.856,0.744-19.755,1.189-29.669,1.189c-75.324,0-150.324-22.517-212.413-62.919
				l-0.037,0.056c-1.787-1.664-4.123-2.707-6.766-2.707c-5.553,0-10.08,4.495-10.08,10.072c0,1.934,0.646,3.613,1.609,5.127
				c31.816,90.888,118.101,156.235,219.836,156.235c101.341,0,187.342-64.742,219.473-154.974l-0.055-0.033
				c0.475-1.187,0.75-2.455,0.75-3.772C651.816,393.684,647.303,389.136,641.749,389.136z"/>
			<path fill="#DCD8D0" d="M576.586,132.986c12.997-10.153,20.387-25.753,19.465-42.333c-0.521-3.856-1.16-6.839-2.607-10.688
				c-7.116-18.809-24.319-38.589-42.155-34.522c-5.231,1.183-16.649,24.686-27.479,49.83
				c-10.871-21.599-46.804-37.509-89.563-37.509c-40.589,0-75.103,14.363-87.734,34.383c-11.082-25.839-22.894-50.387-28.247-51.607
				c-17.8-4.104-35.059,15.687-42.168,34.509c-1.449,3.841-2.041,6.833-2.612,10.722c-0.903,16.605,6.505,32.196,19.553,42.347
				C235.678,170.589,198.5,238.719,198.5,315.552c0,9.076,0.657,17.963,1.627,26.721c60.751,51.338,141.061,66.065,222.527,67.051
				c8.233-1.305,12.159-1.675,14.694-1.881c3.8-0.404,3.981-0.404,17.042-4.496c5.771-2.044,59.013-21.848,78.988-85.29
				c3.435-10.968,8.568-16.528,15.279-16.528c4.729,0,10.39,3.208,12.18,12.281c3.015,16.085,2.788,47.357-0.486,72.752
				c-0.43,3.021-0.866,5.767-1.316,8.712c43.55-11.613,79.951-30.443,104.712-58.3c0.615-6.921,1.039-13.942,1.039-21.021
				C664.786,241.599,630.302,175.703,576.586,132.986z M321.876,107.876c-8.206,6.634-20.298,5.363-26.963-2.883
				c-0.982-1.219-1.735-2.531-2.375-3.884c-3.893-7.14-2.402-16.01,3.662-21.502c0.527-0.536,1.011-1.102,1.609-1.583
				c8.218-6.678,10.57,2.453,17.205,10.699C321.686,97.011,330.125,101.237,321.876,107.876z M500.659,256.005
				c-9.182,14.763-18.706,29.979-24.205,46.79c-4.179,12.778-13.738,41.962-39.659,41.962c-19.071,0-32.039-14.16-38.542-42.084
				c-4.759-19.238-15.518-35.27-25.958-50.76c-13.297-19.781-25.856-38.467-25.856-60.831v-11.908
				c0-11.908,9.062-21.573,20.192-21.573c8.48,0,15.854,5.486,18.81,13.821c0.107,0.265,0.197,0.511,0.299,0.76
				c1.724,4.796,2.216,10.284,2.71,15.59c0.223,2.498,0.461,5.024,0.816,7.401c-1.769-0.039-3.55,0.076-5.339,0.55
				c-10.267,2.741-16.33,13.247-13.63,23.459c2.749,10.243,10.016,4.251,20.289,1.526c2.617-0.697,5.164-1.114,7.475-1.516
				c5.241,13.927,9.639,28.667,13.625,42.16c5.181,17.61,10.508,35.603,16.244,45.994c2.658-0.565,5.564-0.882,8.631-0.882
				c3.727,0,7.18,0.5,10.267,1.311c4.284-8.859,8.162-23.415,11.961-37.646c4.388-16.389,9.215-34.434,16.074-50.98
				c2.37,0.417,4.988,0.839,7.7,1.56c10.262,2.725,17.569,8.717,20.32-1.526c2.675-10.212-3.411-20.718-13.654-23.459
				c-1.676-0.442-3.346-0.572-4.998-0.566c0.224-2.059,0.386-4.192,0.51-6.411c0.323-5.289,0.641-10.742,2.322-16.1
				c0.198-0.661,0.455-1.259,0.746-1.829c3.107-7.979,10.318-13.216,18.592-13.216c11.138,0,20.196,9.666,20.196,21.519
				c0,0.194,0,0.394-0.012,0.585l0.029,11.338C526.615,214.529,514.007,234.707,500.659,256.005z M571.792,111.901
				c-6.114,5.424-15.211,6.571-22.574,2.136c-9.073-5.45-1.288-10.782,4.169-19.841c5.507-9.096,6.575-18.492,15.665-13.019
				c0.629,0.384,1.162,0.866,1.731,1.306c0.41,0.236,0.854,0.527,1.332,0.882c7.822,5.88,9.455,17.01,3.585,24.809
				C574.582,109.669,573.229,110.863,571.792,111.901z"/>
		</g>
	</g>
</g>
<path display="none" fill="#EC2730" d="M293.037,128.117c11.407,9.523,51.407,30.023,52.907,57.523s47,63.5,47,63.5l49.5-22.5
	l-35.5-153.5l-72.5,44L293.037,128.117z"/>
</svg>
