<?xml version="1.0" encoding="UTF-8" standalone="no"?>
<!-- Generator: Adobe Illustrator 16.0.0, SVG Export Plug-In . SVG Version: 6.00 Build 0)  -->

<svg
   xmlns:dc="http://purl.org/dc/elements/1.1/"
   xmlns:cc="http://creativecommons.org/ns#"
   xmlns:rdf="http://www.w3.org/1999/02/22-rdf-syntax-ns#"
   xmlns:svg="http://www.w3.org/2000/svg"
   xmlns="http://www.w3.org/2000/svg"
   xmlns:sodipodi="http://sodipodi.sourceforge.net/DTD/sodipodi-0.dtd"
   xmlns:inkscape="http://www.inkscape.org/namespaces/inkscape"
   version="1.1"
   id="Calque_1"
   x="0px"
   y="0px"
   width="518.00555"
   height="518.00555"
   viewBox="0 0 518.00556 518.00555"
   enable-background="new 0 0 841.889 595.281"
   xml:space="preserve"
   inkscape:version="0.91 r13725"
   sodipodi:docname="indicator-armadito.svg"><metadata
     id="metadata75"><rdf:RDF><cc:Work
         rdf:about=""><dc:format>image/svg+xml</dc:format><dc:type
           rdf:resource="http://purl.org/dc/dcmitype/StillImage" /><dc:title></dc:title></cc:Work></rdf:RDF></metadata><defs
     id="defs73" /><sodipodi:namedview
     pagecolor="#ffffff"
     bordercolor="#666666"
     borderopacity="1"
     objecttolerance="10"
     gridtolerance="10"
     guidetolerance="10"
     inkscape:pageopacity="0"
     inkscape:pageshadow="2"
     inkscape:window-width="1600"
     inkscape:window-height="876"
     id="namedview71"
     showgrid="false"
     fit-margin-top="0"
     fit-margin-left="0"
     fit-margin-right="0"
     fit-margin-bottom="0"
     inkscape:zoom="0.39435129"
     inkscape:cx="-261.89525"
     inkscape:cy="260.3595"
     inkscape:window-x="0"
     inkscape:window-y="24"
     inkscape:window-maximized="1"
     inkscape:current-layer="Calque_1" /><g
     display="none"
     id="g3"
     style="display:none"
     transform="translate(-198.5,-39.99445)"><g
       display="inline"
       id="g5"
       style="display:inline"><g
         id="g7"><path
           d="m 240.272,208.87 c -35.508,0 -64.749,-27.152 -75.193,-58.483 -1.044,-6.266 -2.088,-12.532 -2.088,-18.798 0,-30.286 16.709,-58.484 41.773,-73.104 5.222,4.177 134.722,135.766 134.722,135.766 4.177,4.177 1.044,14.62 -5.222,14.62 l -93.992,0 0,-0.001 z"
           id="path9"
           inkscape:connector-curvature="0"
           style="fill:#dcd8d0" /><path
           d="M 647.569,142.032 C 674.722,120.1 685.166,84.593 673.678,53.261 671.589,48.039 668.456,43.863 665.323,38.641 646.525,14.62 616.239,4.177 588.042,8.355 c -1.045,6.266 -25.064,186.938 -25.064,186.938 -1.045,6.267 5.222,9.399 10.443,5.222 l 74.148,-58.483 0,0 z"
           id="path11"
           inkscape:connector-curvature="0"
           style="fill:#dcd8d0" /></g><g
         id="g13"><path
           d="m 585.952,520.088 -13.577,-7.311 81.46,-249.601 c -57.439,-21.932 -119.057,-33.419 -183.806,-33.419 -63.706,0 -125.322,11.487 -181.718,33.419 25.065,204.694 152.476,289.287 261.089,324.794 9.399,3.133 18.799,3.133 28.197,2.088 21.932,-4.177 27.153,-24.02 28.198,-29.241 2.088,-13.577 -2.089,-32.375 -19.843,-40.729 z M 409.457,328.97 c -20.888,0 -37.597,20.888 -37.597,0 0,-20.887 16.709,-37.597 37.597,-37.597 20.887,0 37.596,16.71 37.596,37.597 1.045,20.888 -16.709,0 -37.596,0 z m 127.41,0 c -20.887,0 -37.597,20.888 -37.597,0 0,-20.887 16.71,-37.597 37.597,-37.597 20.887,0 37.597,16.71 37.597,37.597 1.044,20.888 -16.71,0 -37.597,0 z"
           id="path15"
           inkscape:connector-curvature="0"
           style="fill:#dcd8d0" /></g></g></g><g
     display="none"
     id="g17"
     style="display:none"
     transform="translate(-198.5,-39.99445)"><g
       display="inline"
       id="g19"
       style="display:inline"><path
         d="m 297.808,78.025 c -0.598,0.481 -1.082,1.046 -1.609,1.583 -6.064,5.492 -7.555,14.363 -3.662,21.502 0.64,1.353 1.394,2.665 2.375,3.884 6.666,8.246 18.757,9.517 26.963,2.883 8.249,-6.639 -0.19,-10.865 -6.863,-19.153 -6.634,-8.246 -8.986,-17.377 -17.204,-10.699 z"
         id="path21"
         inkscape:connector-curvature="0"
         style="fill:none" /><path
         d="m 572.115,83.364 c -0.478,-0.355 -0.922,-0.646 -1.332,-0.882 -0.569,-0.44 -1.103,-0.922 -1.731,-1.306 -9.09,-5.474 -10.158,3.923 -15.665,13.019 -5.457,9.06 -13.242,14.391 -4.169,19.841 7.363,4.436 16.46,3.289 22.574,-2.136 1.437,-1.038 2.79,-2.232 3.908,-3.728 5.871,-7.798 4.238,-18.928 -3.585,-24.808 z"
         id="path23"
         inkscape:connector-curvature="0"
         style="fill:none" /><g
         id="g25"><path
           d="m 641.749,389.136 c -2.637,0 -5.007,1.076 -6.797,2.758 l -0.348,-0.264 c -45.053,33.485 -101.66,54.291 -165.438,59.317 -9.856,0.744 -19.755,1.189 -29.669,1.189 -75.324,0 -150.324,-22.517 -212.413,-62.919 l -0.037,0.056 c -1.787,-1.664 -4.123,-2.707 -6.766,-2.707 -5.553,0 -10.08,4.495 -10.08,10.072 0,1.934 0.646,3.613 1.609,5.127 C 243.626,492.653 329.911,558 431.646,558 532.987,558 618.988,493.258 651.119,403.026 l -0.055,-0.033 c 0.475,-1.187 0.75,-2.455 0.75,-3.772 0.002,-5.537 -4.511,-10.085 -10.065,-10.085 z"
           id="path27"
           inkscape:connector-curvature="0"
           style="fill:#ff8a85" /><path
           d="m 576.586,132.986 c 12.997,-10.153 20.387,-25.753 19.465,-42.333 -0.521,-3.856 -1.16,-6.839 -2.607,-10.688 -7.116,-18.809 -24.319,-38.589 -42.155,-34.522 -5.231,1.183 -16.649,24.686 -27.479,49.83 -10.871,-21.599 -46.804,-37.509 -89.563,-37.509 -40.589,0 -75.103,14.363 -87.734,34.383 C 335.431,66.308 323.619,41.76 318.266,40.54 c -17.8,-4.104 -35.059,15.687 -42.168,34.509 -1.449,3.841 -2.041,6.833 -2.612,10.722 -0.903,16.605 6.505,32.196 19.553,42.347 -57.361,42.471 -94.539,110.601 -94.539,187.434 0,9.076 0.657,17.963 1.627,26.721 60.751,51.338 141.061,66.065 222.527,67.051 8.233,-1.305 12.159,-1.675 14.694,-1.881 3.8,-0.404 3.981,-0.404 17.042,-4.496 5.771,-2.044 59.013,-21.848 78.988,-85.29 3.435,-10.968 8.568,-16.528 15.279,-16.528 4.729,0 10.39,3.208 12.18,12.281 3.015,16.085 2.788,47.357 -0.486,72.752 -0.43,3.021 -0.866,5.767 -1.316,8.712 43.55,-11.613 79.951,-30.443 104.712,-58.3 0.615,-6.921 1.039,-13.942 1.039,-21.021 0,-73.954 -34.484,-139.85 -88.2,-182.567 z m -254.71,-25.11 c -8.206,6.634 -20.298,5.363 -26.963,-2.883 -0.982,-1.219 -1.735,-2.531 -2.375,-3.884 -3.893,-7.14 -2.402,-16.01 3.662,-21.502 0.527,-0.536 1.011,-1.102 1.609,-1.583 8.218,-6.678 10.57,2.453 17.205,10.699 6.672,8.288 15.111,12.514 6.862,19.153 z m 178.783,148.129 c -9.182,14.763 -18.706,29.979 -24.205,46.79 -4.179,12.778 -13.738,41.962 -39.659,41.962 -19.071,0 -32.039,-14.16 -38.542,-42.084 -4.759,-19.238 -15.518,-35.27 -25.958,-50.76 -13.297,-19.781 -25.856,-38.467 -25.856,-60.831 l 0,-11.908 c 0,-11.908 9.062,-21.573 20.192,-21.573 8.48,0 15.854,5.486 18.81,13.821 0.107,0.265 0.197,0.511 0.299,0.76 1.724,4.796 2.216,10.284 2.71,15.59 0.223,2.498 0.461,5.024 0.816,7.401 -1.769,-0.039 -3.55,0.076 -5.339,0.55 -10.267,2.741 -16.33,13.247 -13.63,23.459 2.749,10.243 10.016,4.251 20.289,1.526 2.617,-0.697 5.164,-1.114 7.475,-1.516 5.241,13.927 9.639,28.667 13.625,42.16 5.181,17.61 10.508,35.603 16.244,45.994 2.658,-0.565 5.564,-0.882 8.631,-0.882 3.727,0 7.18,0.5 10.267,1.311 4.284,-8.859 8.162,-23.415 11.961,-37.646 4.388,-16.389 9.215,-34.434 16.074,-50.98 2.37,0.417 4.988,0.839 7.7,1.56 10.262,2.725 17.569,8.717 20.32,-1.526 2.675,-10.212 -3.411,-20.718 -13.654,-23.459 -1.676,-0.442 -3.346,-0.572 -4.998,-0.566 0.224,-2.059 0.386,-4.192 0.51,-6.411 0.323,-5.289 0.641,-10.742 2.322,-16.1 0.198,-0.661 0.455,-1.259 0.746,-1.829 3.107,-7.979 10.318,-13.216 18.592,-13.216 11.138,0 20.196,9.666 20.196,21.519 0,0.194 0,0.394 -0.012,0.585 l 0.029,11.338 c 10e-4,23.485 -12.607,43.663 -25.955,64.961 z m 71.133,-144.104 c -6.114,5.424 -15.211,6.571 -22.574,2.136 -9.073,-5.45 -1.288,-10.782 4.169,-19.841 5.507,-9.096 6.575,-18.492 15.665,-13.019 0.629,0.384 1.162,0.866 1.731,1.306 0.41,0.236 0.854,0.527 1.332,0.882 7.822,5.88 9.455,17.01 3.585,24.809 -1.118,1.495 -2.471,2.689 -3.908,3.727 z"
           id="path29"
           inkscape:connector-curvature="0"
           style="fill:#ff8a85" /></g></g></g><g
     id="g31"
     transform="translate(-172.64022,-39.99445)"><g
       id="g33"><path
         d="m 297.808,78.025 c -0.598,0.481 -1.082,1.046 -1.609,1.583 -6.064,5.492 -7.555,14.363 -3.662,21.502 0.64,1.353 1.394,2.665 2.375,3.884 6.666,8.246 18.757,9.517 26.963,2.883 8.249,-6.639 -0.19,-10.865 -6.863,-19.153 -6.634,-8.246 -8.986,-17.377 -17.204,-10.699 z"
         id="path35"
         inkscape:connector-curvature="0"
         style="fill:#ec2730" /><path
         d="m 572.115,83.364 c -0.478,-0.355 -0.922,-0.646 -1.332,-0.882 -0.569,-0.44 -1.103,-0.922 -1.731,-1.306 -9.09,-5.474 -10.158,3.923 -15.665,13.019 -5.457,9.06 -13.242,14.391 -4.169,19.841 7.363,4.436 16.46,3.289 22.574,-2.136 1.437,-1.038 2.79,-2.232 3.908,-3.728 5.871,-7.798 4.238,-18.928 -3.585,-24.808 z"
         id="path37"
         inkscape:connector-curvature="0"
         style="fill:#ec2730" /><g
         id="g39"><path
           d="m 641.749,389.136 c -2.637,0 -5.007,1.076 -6.797,2.758 l -0.348,-0.264 c -45.053,33.485 -101.66,54.291 -165.438,59.317 -9.856,0.744 -19.755,1.189 -29.669,1.189 -75.324,0 -150.324,-22.517 -212.413,-62.919 l -0.037,0.056 c -1.787,-1.664 -4.123,-2.707 -6.766,-2.707 -5.553,0 -10.08,4.495 -10.08,10.072 0,1.934 0.646,3.613 1.609,5.127 C 243.626,492.653 329.911,558 431.646,558 532.987,558 618.988,493.258 651.119,403.026 l -0.055,-0.033 c 0.475,-1.187 0.75,-2.455 0.75,-3.772 0.002,-5.537 -4.511,-10.085 -10.065,-10.085 z"
           id="path41"
           inkscape:connector-curvature="0"
           style="fill:#ec2730" /><path
           d="m 576.586,132.986 c 12.997,-10.153 20.387,-25.753 19.465,-42.333 -0.521,-3.856 -1.16,-6.839 -2.607,-10.688 -7.116,-18.809 -24.319,-38.589 -42.155,-34.522 -5.231,1.183 -16.649,24.686 -27.479,49.83 -10.871,-21.599 -46.804,-37.509 -89.563,-37.509 -40.589,0 -75.103,14.363 -87.734,34.383 C 335.431,66.308 323.619,41.76 318.266,40.54 c -17.8,-4.104 -35.059,15.687 -42.168,34.509 -1.449,3.841 -2.041,6.833 -2.612,10.722 -0.903,16.605 6.505,32.196 19.553,42.347 -57.361,42.471 -94.539,110.601 -94.539,187.434 0,9.076 0.657,17.963 1.627,26.721 60.751,51.338 141.061,66.065 222.527,67.051 8.233,-1.305 12.159,-1.675 14.694,-1.881 3.8,-0.404 3.981,-0.404 17.042,-4.496 5.771,-2.044 59.013,-21.848 78.988,-85.29 3.435,-10.968 8.568,-16.528 15.279,-16.528 4.729,0 10.39,3.208 12.18,12.281 3.015,16.085 2.788,47.357 -0.486,72.752 -0.43,3.021 -0.866,5.767 -1.316,8.712 43.55,-11.613 79.951,-30.443 104.712,-58.3 0.615,-6.921 1.039,-13.942 1.039,-21.021 0,-73.954 -34.484,-139.85 -88.2,-182.567 z m -254.71,-25.11 c -8.206,6.634 -20.298,5.363 -26.963,-2.883 -0.982,-1.219 -1.735,-2.531 -2.375,-3.884 -3.893,-7.14 -2.402,-16.01 3.662,-21.502 0.527,-0.536 1.011,-1.102 1.609,-1.583 8.218,-6.678 10.57,2.453 17.205,10.699 6.672,8.288 15.111,12.514 6.862,19.153 z m 178.783,148.129 c -9.182,14.763 -18.706,29.979 -24.205,46.79 -4.179,12.778 -13.738,41.962 -39.659,41.962 -19.071,0 -32.039,-14.16 -38.542,-42.084 -4.759,-19.238 -15.518,-35.27 -25.958,-50.76 -13.297,-19.781 -25.856,-38.467 -25.856,-60.831 l 0,-11.908 c 0,-11.908 9.062,-21.573 20.192,-21.573 8.48,0 15.854,5.486 18.81,13.821 0.107,0.265 0.197,0.511 0.299,0.76 1.724,4.796 2.216,10.284 2.71,15.59 0.223,2.498 0.461,5.024 0.816,7.401 -1.769,-0.039 -3.55,0.076 -5.339,0.55 -10.267,2.741 -16.33,13.247 -13.63,23.459 2.749,10.243 10.016,4.251 20.289,1.526 2.617,-0.697 5.164,-1.114 7.475,-1.516 5.241,13.927 9.639,28.667 13.625,42.16 5.181,17.61 10.508,35.603 16.244,45.994 2.658,-0.565 5.564,-0.882 8.631,-0.882 3.727,0 7.18,0.5 10.267,1.311 4.284,-8.859 8.162,-23.415 11.961,-37.646 4.388,-16.389 9.215,-34.434 16.074,-50.98 2.37,0.417 4.988,0.839 7.7,1.56 10.262,2.725 17.569,8.717 20.32,-1.526 2.675,-10.212 -3.411,-20.718 -13.654,-23.459 -1.676,-0.442 -3.346,-0.572 -4.998,-0.566 0.224,-2.059 0.386,-4.192 0.51,-6.411 0.323,-5.289 0.641,-10.742 2.322,-16.1 0.198,-0.661 0.455,-1.259 0.746,-1.829 3.107,-7.979 10.318,-13.216 18.592,-13.216 11.138,0 20.196,9.666 20.196,21.519 0,0.194 0,0.394 -0.012,0.585 l 0.029,11.338 c 10e-4,23.485 -12.607,43.663 -25.955,64.961 z m 71.133,-144.104 c -6.114,5.424 -15.211,6.571 -22.574,2.136 -9.073,-5.45 -1.288,-10.782 4.169,-19.841 5.507,-9.096 6.575,-18.492 15.665,-13.019 0.629,0.384 1.162,0.866 1.731,1.306 0.41,0.236 0.854,0.527 1.332,0.882 7.822,5.88 9.455,17.01 3.585,24.809 -1.118,1.495 -2.471,2.689 -3.908,3.727 z"
           id="path43"
           inkscape:connector-curvature="0"
           style="fill:#ec2730" /></g></g></g><g
     display="none"
     id="g45"
     style="display:none"
     transform="translate(-198.5,-39.99445)"><g
       display="inline"
       id="g47"
       style="display:inline"><g
         id="g49"><path
           d="m 576.586,132.986 c 12.997,-10.153 20.387,-25.753 19.465,-42.333 -0.521,-3.856 -1.16,-6.839 -2.607,-10.688 -7.116,-18.809 -24.319,-38.589 -42.155,-34.522 -5.231,1.183 -16.649,24.686 -27.479,49.83 -10.871,-21.599 -46.804,-37.509 -89.563,-37.509 -40.589,0 -75.103,14.363 -87.734,34.383 C 335.431,66.308 323.619,41.76 318.266,40.54 c -17.8,-4.104 -35.059,15.687 -42.168,34.509 -1.449,3.841 -2.041,6.833 -2.612,10.722 -0.903,16.605 6.505,32.196 19.553,42.347 -57.361,42.471 -94.539,110.601 -94.539,187.434 0,9.076 0.657,17.963 1.627,26.721 60.751,51.338 141.061,66.065 222.527,67.051 8.233,-1.305 12.159,-1.675 14.694,-1.881 3.8,-0.404 3.981,-0.404 17.042,-4.496 5.771,-2.044 59.013,-21.848 78.988,-85.29 3.435,-10.968 8.568,-16.528 15.279,-16.528 4.729,0 10.39,3.208 12.18,12.281 3.015,16.085 2.788,47.357 -0.486,72.752 -0.43,3.021 -0.866,5.767 -1.316,8.712 43.55,-11.613 79.951,-30.443 104.712,-58.3 0.615,-6.921 1.039,-13.942 1.039,-21.021 0,-73.954 -34.484,-139.85 -88.2,-182.567 z m -254.71,-25.11 c -8.206,6.634 -20.298,5.363 -26.963,-2.883 -0.982,-1.219 -1.735,-2.531 -2.375,-3.884 -3.893,-7.14 -2.402,-16.01 3.662,-21.502 0.527,-0.536 1.011,-1.102 1.609,-1.583 8.218,-6.678 10.57,2.453 17.205,10.699 6.672,8.288 15.111,12.514 6.862,19.153 z m 178.783,148.129 c -9.182,14.763 -18.706,29.979 -24.205,46.79 -4.179,12.778 -13.738,41.962 -39.659,41.962 -19.071,0 -32.039,-14.16 -38.542,-42.084 -4.759,-19.238 -15.518,-35.27 -25.958,-50.76 -13.297,-19.781 -25.856,-38.467 -25.856,-60.831 l 0,-11.908 c 0,-11.908 9.062,-21.573 20.192,-21.573 8.48,0 15.854,5.486 18.81,13.821 0.107,0.265 0.197,0.511 0.299,0.76 1.724,4.796 2.216,10.284 2.71,15.59 0.223,2.498 0.461,5.024 0.816,7.401 -1.769,-0.039 -3.55,0.076 -5.339,0.55 -10.267,2.741 -16.33,13.247 -13.63,23.459 2.749,10.243 10.016,4.251 20.289,1.526 2.617,-0.697 5.164,-1.114 7.475,-1.516 5.241,13.927 9.639,28.667 13.625,42.16 5.181,17.61 10.508,35.603 16.244,45.994 2.658,-0.565 5.564,-0.882 8.631,-0.882 3.727,0 7.18,0.5 10.267,1.311 4.284,-8.859 8.162,-23.415 11.961,-37.646 4.388,-16.389 9.215,-34.434 16.074,-50.98 2.37,0.417 4.988,0.839 7.7,1.56 10.262,2.725 17.569,8.717 20.32,-1.526 2.675,-10.212 -3.411,-20.718 -13.654,-23.459 -1.676,-0.442 -3.346,-0.572 -4.998,-0.566 0.224,-2.059 0.386,-4.192 0.51,-6.411 0.323,-5.289 0.641,-10.742 2.322,-16.1 0.198,-0.661 0.455,-1.259 0.746,-1.829 3.107,-7.979 10.318,-13.216 18.592,-13.216 11.138,0 20.196,9.666 20.196,21.519 0,0.194 0,0.394 -0.012,0.585 l 0.029,11.338 c 10e-4,23.485 -12.607,43.663 -25.955,64.961 z m 71.133,-144.104 c -6.114,5.424 -15.211,6.571 -22.574,2.136 -9.073,-5.45 -1.288,-10.782 4.169,-19.841 5.507,-9.096 6.575,-18.492 15.665,-13.019 0.629,0.384 1.162,0.866 1.731,1.306 0.41,0.236 0.854,0.527 1.332,0.882 7.822,5.88 9.455,17.01 3.585,24.809 -1.118,1.495 -2.471,2.689 -3.908,3.727 z"
           id="path51"
           inkscape:connector-curvature="0"
           style="fill:#ec2730" /></g></g></g><ellipse
     display="none"
     cx="232.44501"
     cy="280.64557"
     rx="233.5"
     ry="237.5"
     id="ellipse53"
     style="display:none;fill:#ffffff" /><circle
     display="none"
     cx="361.94501"
     cy="60.14555"
     r="27"
     id="circle55"
     style="display:none;fill:#ffffff" /><circle
     display="none"
     cx="109.94501"
     cy="54.14555"
     r="27"
     id="circle57"
     style="display:none;fill:#ffffff" /><g
     display="none"
     id="g59"
     style="display:none"
     transform="translate(-198.5,-39.99445)"><g
       display="inline"
       id="g61"
       style="display:inline"><g
         id="g63"><path
           d="m 641.749,389.136 c -2.637,0 -5.007,1.076 -6.797,2.758 l -0.348,-0.264 c -45.053,33.485 -101.66,54.291 -165.438,59.317 -9.856,0.744 -19.755,1.189 -29.669,1.189 -75.324,0 -150.324,-22.517 -212.413,-62.919 l -0.037,0.056 c -1.787,-1.664 -4.123,-2.707 -6.766,-2.707 -5.553,0 -10.08,4.495 -10.08,10.072 0,1.934 0.646,3.613 1.609,5.127 C 243.626,492.653 329.911,558 431.646,558 532.987,558 618.988,493.258 651.119,403.026 l -0.055,-0.033 c 0.475,-1.187 0.75,-2.455 0.75,-3.772 0.002,-5.537 -4.511,-10.085 -10.065,-10.085 z"
           id="path65"
           inkscape:connector-curvature="0"
           style="fill:#dcd8d0" /><path
           d="m 576.586,132.986 c 12.997,-10.153 20.387,-25.753 19.465,-42.333 -0.521,-3.856 -1.16,-6.839 -2.607,-10.688 -7.116,-18.809 -24.319,-38.589 -42.155,-34.522 -5.231,1.183 -16.649,24.686 -27.479,49.83 -10.871,-21.599 -46.804,-37.509 -89.563,-37.509 -40.589,0 -75.103,14.363 -87.734,34.383 C 335.431,66.308 323.619,41.76 318.266,40.54 c -17.8,-4.104 -35.059,15.687 -42.168,34.509 -1.449,3.841 -2.041,6.833 -2.612,10.722 -0.903,16.605 6.505,32.196 19.553,42.347 -57.361,42.471 -94.539,110.601 -94.539,187.434 0,9.076 0.657,17.963 1.627,26.721 60.751,51.338 141.061,66.065 222.527,67.051 8.233,-1.305 12.159,-1.675 14.694,-1.881 3.8,-0.404 3.981,-0.404 17.042,-4.496 5.771,-2.044 59.013,-21.848 78.988,-85.29 3.435,-10.968 8.568,-16.528 15.279,-16.528 4.729,0 10.39,3.208 12.18,12.281 3.015,16.085 2.788,47.357 -0.486,72.752 -0.43,3.021 -0.866,5.767 -1.316,8.712 43.55,-11.613 79.951,-30.443 104.712,-58.3 0.615,-6.921 1.039,-13.942 1.039,-21.021 0,-73.954 -34.484,-139.85 -88.2,-182.567 z m -254.71,-25.11 c -8.206,6.634 -20.298,5.363 -26.963,-2.883 -0.982,-1.219 -1.735,-2.531 -2.375,-3.884 -3.893,-7.14 -2.402,-16.01 3.662,-21.502 0.527,-0.536 1.011,-1.102 1.609,-1.583 8.218,-6.678 10.57,2.453 17.205,10.699 6.672,8.288 15.111,12.514 6.862,19.153 z m 178.783,148.129 c -9.182,14.763 -18.706,29.979 -24.205,46.79 -4.179,12.778 -13.738,41.962 -39.659,41.962 -19.071,0 -32.039,-14.16 -38.542,-42.084 -4.759,-19.238 -15.518,-35.27 -25.958,-50.76 -13.297,-19.781 -25.856,-38.467 -25.856,-60.831 l 0,-11.908 c 0,-11.908 9.062,-21.573 20.192,-21.573 8.48,0 15.854,5.486 18.81,13.821 0.107,0.265 0.197,0.511 0.299,0.76 1.724,4.796 2.216,10.284 2.71,15.59 0.223,2.498 0.461,5.024 0.816,7.401 -1.769,-0.039 -3.55,0.076 -5.339,0.55 -10.267,2.741 -16.33,13.247 -13.63,23.459 2.749,10.243 10.016,4.251 20.289,1.526 2.617,-0.697 5.164,-1.114 7.475,-1.516 5.241,13.927 9.639,28.667 13.625,42.16 5.181,17.61 10.508,35.603 16.244,45.994 2.658,-0.565 5.564,-0.882 8.631,-0.882 3.727,0 7.18,0.5 10.267,1.311 4.284,-8.859 8.162,-23.415 11.961,-37.646 4.388,-16.389 9.215,-34.434 16.074,-50.98 2.37,0.417 4.988,0.839 7.7,1.56 10.262,2.725 17.569,8.717 20.32,-1.526 2.675,-10.212 -3.411,-20.718 -13.654,-23.459 -1.676,-0.442 -3.346,-0.572 -4.998,-0.566 0.224,-2.059 0.386,-4.192 0.51,-6.411 0.323,-5.289 0.641,-10.742 2.322,-16.1 0.198,-0.661 0.455,-1.259 0.746,-1.829 3.107,-7.979 10.318,-13.216 18.592,-13.216 11.138,0 20.196,9.666 20.196,21.519 0,0.194 0,0.394 -0.012,0.585 l 0.029,11.338 c 10e-4,23.485 -12.607,43.663 -25.955,64.961 z m 71.133,-144.104 c -6.114,5.424 -15.211,6.571 -22.574,2.136 -9.073,-5.45 -1.288,-10.782 4.169,-19.841 5.507,-9.096 6.575,-18.492 15.665,-13.019 0.629,0.384 1.162,0.866 1.731,1.306 0.41,0.236 0.854,0.527 1.332,0.882 7.822,5.88 9.455,17.01 3.585,24.809 -1.118,1.495 -2.471,2.689 -3.908,3.727 z"
           id="path67"
           inkscape:connector-curvature="0"
           style="fill:#dcd8d0" /></g></g></g><path
     display="none"
     d="m 94.537,88.12255 c 11.407,9.523 51.407,30.02301 52.907,57.52301 1.5,27.5 47,63.5 47,63.5 l 49.5,-22.5 -35.5,-153.50001 -72.5,44 -41.407,10.977 z"
     id="path69"
     inkscape:connector-curvature="0"
     style="display:none;fill:#ec2730" /></svg>