<?xml version="1.0" encoding="utf-8"?>
<!-- Generator: Adobe Illustrator 20.1.0, SVG Export Plug-In . SVG Version: 6.00 Build 0)  -->
<svg version="1.1" id="Calque_1" xmlns="http://www.w3.org/2000/svg" xmlns:xlink="http://www.w3.org/1999/xlink" x="0px" y="0px"
	 viewBox="0 0 57 57" style="enable-background:new 0 0 57 57;" xml:space="preserve">
<style type="text/css">
	.st0{fill:#DCD8D0;}
</style>
<g>
	<g>
		<g>
			<path class="st0" d="M11.2,20C7.8,20,5,17.4,4,14.4c-0.1-0.6-0.2-1.2-0.2-1.8c0-2.9,1.6-5.6,4-7c0.5,0.4,12.9,13,12.9,13
				c0.4,0.4,0.1,1.4-0.5,1.4H11.2L11.2,20z"/>
			<path class="st0" d="M50.2,13.6c2.6-2.1,3.6-5.5,2.5-8.5c-0.2-0.5-0.5-0.9-0.8-1.4c-1.8-2.3-4.7-3.3-7.4-2.9
				c-0.1,0.6-2.4,17.9-2.4,17.9c-0.1,0.6,0.5,0.9,1,0.5L50.2,13.6L50.2,13.6z"/>
		</g>
		<g>
			<path class="st0" d="M44.3,49.8L43,49.1l7.8-23.9C45.3,23.1,39.4,22,33.2,22c-6.1,0-12,1.1-17.4,3.2c2.4,19.6,14.6,27.7,25,31.1
				c0.9,0.3,1.8,0.3,2.7,0.2c2.1-0.4,2.6-2.3,2.7-2.8C46.4,52.4,46,50.6,44.3,49.8z M27.4,31.5c-2,0-3.6,2-3.6,0
				c0-2,1.6-3.6,3.6-3.6c2,0,3.6,1.6,3.6,3.6C31.1,33.5,29.4,31.5,27.4,31.5z M39.6,31.5c-2,0-3.6,2-3.6,0c0-2,1.6-3.6,3.6-3.6
				c2,0,3.6,1.6,3.6,3.6C43.3,33.5,41.6,31.5,39.6,31.5z"/>
		</g>
	</g>
</g>
</svg>
